<svg xmlns="http://www.w3.org/2000/svg" xmlns:xlink="http://www.w3.org/1999/xlink" width="800" zoomAndPan="magnify" viewBox="0 0 600 599.999999" height="800" preserveAspectRatio="xMidYMid meet" version="1.0"><defs><clipPath id="f214b0ce7b"><path d="M 1.738281 17 L 597.988281 17 L 597.988281 583 L 1.738281 583 Z M 1.738281 17 " clip-rule="nonzero"/></clipPath><clipPath id="37b5fb58dc"><path d="M 392.386719 401 L 534 401 L 534 452.679688 L 392.386719 452.679688 Z M 392.386719 401 " clip-rule="nonzero"/></clipPath><clipPath id="8589c71bdd"><path d="M 411 332.679688 L 515 332.679688 L 515 422 L 411 422 Z M 411 332.679688 " clip-rule="nonzero"/></clipPath></defs><g clip-path="url(#f214b0ce7b)"><path fill="#38b6ff" d="M 55.015625 212.160156 L 544.984375 212.160156 C 566.90625 212.160156 584.703125 229.953125 584.703125 251.878906 L 584.703125 528.953125 C 584.703125 550.929688 566.90625 568.726562 544.984375 568.726562 L 55.015625 568.726562 C 33.089844 568.726562 15.296875 550.929688 15.296875 529.007812 C 15.296875 529.007812 15.296875 529.007812 15.296875 528.953125 L 15.296875 251.878906 C 15.296875 229.953125 33.089844 212.160156 55.015625 212.160156 Z M 537.832031 17.378906 C 520.835938 16.847656 506.640625 30.246094 506.164062 47.246094 C 506.113281 47.566406 506.113281 47.882812 506.113281 48.148438 L 118.777344 158.617188 C 96.691406 151.308594 72.863281 163.332031 65.605469 185.414062 C 64.175781 189.652344 63.488281 194.101562 63.488281 198.601562 L 55.015625 198.601562 C 25.625 198.601562 1.738281 222.433594 1.738281 251.878906 L 1.738281 528.953125 C 1.738281 558.398438 25.625 582.28125 55.015625 582.28125 L 544.984375 582.28125 C 574.375 582.28125 598.257812 558.398438 598.257812 529.007812 L 598.257812 251.878906 C 598.257812 222.433594 574.375 198.601562 544.984375 198.601562 L 147.746094 198.601562 C 147.746094 189.492188 144.777344 180.648438 139.378906 173.394531 L 510.347656 63.71875 C 518.980469 78.386719 537.832031 83.3125 552.503906 74.730469 C 567.171875 66.101562 572.097656 47.246094 563.519531 32.578125 C 558.117188 23.417969 548.425781 17.644531 537.832031 17.378906 " fill-opacity="1" fill-rule="nonzero"/></g><path fill="#38b6ff" d="M 73.390625 290.113281 L 276.855469 290.113281 C 284.695312 290.113281 291.050781 283.757812 291.050781 275.921875 C 290.996094 268.082031 284.640625 261.726562 276.855469 261.726562 L 73.390625 261.726562 C 65.554688 261.726562 59.199219 268.082031 59.199219 275.972656 C 59.25 283.757812 65.554688 290.113281 73.390625 290.113281 " fill-opacity="1" fill-rule="nonzero"/><path fill="#38b6ff" d="M 559.28125 390.414062 C 559.386719 336.980469 516.121094 293.503906 462.632812 293.449219 C 409.144531 293.34375 365.71875 336.609375 365.613281 390.097656 C 365.613281 390.203125 365.613281 390.308594 365.613281 390.414062 C 365.5625 443.902344 408.828125 487.328125 462.261719 487.433594 C 515.75 487.539062 559.175781 444.273438 559.28125 390.785156 C 559.28125 390.679688 559.28125 390.574219 559.28125 390.414062 " fill-opacity="1" fill-rule="nonzero"/><path fill="#38b6ff" d="M 545.988281 390.414062 C 546.09375 344.34375 508.757812 306.847656 462.632812 306.742188 C 416.507812 306.636719 379.066406 343.972656 378.960938 390.097656 C 378.960938 390.203125 378.960938 390.308594 378.960938 390.414062 C 378.855469 436.542969 416.136719 474.035156 462.261719 474.140625 C 508.390625 474.246094 545.882812 436.914062 545.988281 390.785156 C 545.988281 390.679688 545.988281 390.574219 545.988281 390.414062 " fill-opacity="1" fill-rule="nonzero"/><path fill="#38b6ff" d="M 276.855469 519.15625 C 284.695312 519.15625 291.050781 512.75 291.050781 504.910156 C 290.996094 497.074219 284.640625 490.769531 276.855469 490.71875 L 73.390625 490.71875 C 65.554688 490.769531 59.199219 497.125 59.199219 504.964844 C 59.25 512.800781 65.554688 519.15625 73.390625 519.15625 L 276.855469 519.15625 " fill-opacity="1" fill-rule="nonzero"/><path fill="#38b6ff" d="M 276.855469 376.222656 L 73.390625 376.222656 C 65.554688 376.222656 59.199219 382.628906 59.199219 390.46875 C 59.25 398.304688 65.554688 404.660156 73.390625 404.660156 L 276.855469 404.660156 C 284.695312 404.660156 291.050781 398.253906 291.050781 390.414062 C 290.996094 382.578125 284.640625 376.222656 276.855469 376.222656 " fill-opacity="1" fill-rule="nonzero"/><path fill="#38b6ff" d="M 276.855469 318.976562 L 73.390625 318.976562 C 65.554688 319.027344 59.199219 325.382812 59.25 333.273438 C 59.304688 341.058594 65.605469 347.359375 73.390625 347.414062 L 276.855469 347.414062 C 284.695312 347.359375 290.996094 340.953125 290.996094 333.113281 C 290.941406 325.328125 284.640625 319.027344 276.855469 318.976562 " fill-opacity="1" fill-rule="nonzero"/><path fill="#38b6ff" d="M 276.855469 461.910156 C 284.695312 461.910156 291.050781 455.5 291.050781 447.664062 C 290.996094 439.824219 284.640625 433.46875 276.855469 433.46875 L 73.390625 433.46875 C 65.554688 433.46875 59.199219 439.878906 59.199219 447.714844 C 59.25 455.554688 65.554688 461.910156 73.390625 461.910156 L 276.855469 461.910156 " fill-opacity="1" fill-rule="nonzero"/><g clip-path="url(#37b5fb58dc)"><path fill="#ffffff" d="M 413.050781 406.496094 L 413.621094 416.894531 C 413.660156 417.601562 413.925781 418.269531 414.371094 418.816406 C 417.503906 422.605469 431.542969 435.832031 463.179688 435.832031 C 494.8125 435.832031 508.683594 422.777344 511.929688 418.886719 C 512.417969 418.300781 512.703125 417.570312 512.746094 416.804688 L 513.3125 406.503906 C 517.078125 404.4375 520.96875 402.101562 520.96875 402.101562 C 527.082031 398.789062 533.902344 403.546875 533.914062 410.523438 C 533.9375 421.816406 525.113281 433.417969 513.214844 440.726562 C 499.800781 448.972656 479.773438 452.394531 463.1875 452.394531 C 446.601562 452.394531 426.574219 448.972656 413.15625 440.726562 C 401.257812 433.417969 392.4375 421.820312 392.457031 410.523438 C 392.46875 403.546875 399.292969 398.789062 405.40625 402.101562 C 405.40625 402.101562 409.289062 404.429688 413.050781 406.496094 Z M 413.050781 406.496094 " fill-opacity="1" fill-rule="nonzero"/></g><g clip-path="url(#8589c71bdd)"><path fill="#ffffff" d="M 463.183594 332.703125 C 489.050781 332.703125 496.0625 333.304688 506.578125 334.515625 L 506.574219 334.515625 C 511.425781 335.070312 515.308594 338.679688 514.949219 343.566406 L 511.074219 396.34375 C 509.863281 396.691406 508.539062 397.136719 507.058594 397.632812 C 499.289062 400.242188 487.105469 404.332031 463.183594 404.332031 C 439.257812 404.332031 427.078125 400.242188 419.304688 397.632812 C 417.824219 397.136719 416.5 396.691406 415.285156 396.339844 L 411.410156 343.566406 C 411.054688 338.679688 414.929688 334.984375 419.785156 334.515625 C 430.175781 333.503906 440.988281 332.703125 463.183594 332.703125 Z M 417.140625 421.628906 L 417.15625 421.816406 L 417.421875 421.875 C 417.328125 421.792969 417.234375 421.710938 417.140625 421.628906 Z M 508.964844 421.871094 L 509.207031 421.816406 L 509.21875 421.644531 C 509.136719 421.71875 509.050781 421.792969 508.964844 421.871094 Z M 508.964844 421.871094 " fill-opacity="1" fill-rule="nonzero"/></g></svg>